<?xml version="1.0" encoding="utf-8"?>
<!-- Generator: Adobe Illustrator 16.0.3, SVG Export Plug-In . SVG Version: 6.00 Build 0)  -->
<!DOCTYPE svg PUBLIC "-//W3C//DTD SVG 1.1//EN" "http://www.w3.org/Graphics/SVG/1.1/DTD/svg11.dtd">
<svg version="1.1" id="Layer_1" xmlns="http://www.w3.org/2000/svg" xmlns:xlink="http://www.w3.org/1999/xlink" x="0px" y="0px"
	 width="128px" height="40px" viewBox="-63.5 108.5 128 40" enable-background="new -63.5 108.5 128 40" xml:space="preserve">
<path fill="#DDDDDD" d="M9.427,145.833v-13.844c0.077-2.072,0.471-3.873,1.178-5.402c0.705-1.53,1.613-2.771,2.723-3.722
	c1.109-0.948,2.308-1.645,3.6-2.087c1.29-0.441,2.588-0.661,3.895-0.661c2.665,0,4.894,0.619,6.681,1.855
	c1.792,1.237,3.102,2.763,3.937,4.579c0.834,1.814,1.252,3.565,1.252,5.251c0,1.234-0.174,2.51-0.518,3.819
	c-0.343,1.31-0.926,2.56-1.749,3.755c-0.821,1.193-1.945,2.197-3.368,3.012c-1.423,0.817-3.153,1.307-5.192,1.466
	c-1.161,0-2.219-0.098-3.179-0.298c-0.965-0.203-2.104-0.654-3.416-1.355v-4.373c0.17,0.078,0.676,0.324,1.512,0.738
	c0.838,0.41,1.463,0.699,1.871,0.857c0.41,0.158,0.822,0.271,1.24,0.34c0.416,0.07,0.918,0.107,1.494,0.107
	c1.461-0.031,2.729-0.402,3.806-1.115c1.072-0.709,1.894-1.672,2.467-2.886c0.572-1.214,0.86-2.568,0.86-4.067
	c0-1.57-0.369-2.946-1.099-4.132c-0.73-1.186-1.681-2.094-2.849-2.719c-1.172-0.626-2.391-0.939-3.66-0.939
	c-1.19,0-2.344,0.324-3.464,0.969c-1.12,0.644-2.042,1.648-2.765,3.008c-0.725,1.358-1.084,3.024-1.084,4.993v12.851H9.427z
	 M41.357,143.381v-13.908c0-1.683,0.43-3.242,1.291-4.673c0.865-1.428,2.049-2.566,3.567-3.42c1.515-0.85,3.175-1.299,4.974-1.355
	c1.291,0,2.692,0.331,4.205,0.992c1.516,0.66,2.814,1.731,3.899,3.211c1.089,1.48,1.63,3.355,1.63,5.627v13.525H56.75v-13.432
	c0-1.583-0.522-2.957-1.559-4.12c-1.043-1.165-2.375-1.769-4.002-1.815c-1.551,0-2.865,0.547-3.942,1.64
	c-1.075,1.094-1.613,2.397-1.613,3.914v13.813L41.357,143.381L41.357,143.381z M-22.378,143.381v-20.103
	c0.097-2.324,0.65-4.411,1.665-6.267c1.015-1.851,2.377-3.289,4.083-4.312c1.705-1.022,3.6-1.533,5.685-1.533
	c2.282,0,4.318,0.514,6.11,1.541c1.79,1.023,3.191,2.533,4.206,4.525c1.015,1.992,1.537,4.366,1.57,7.119v19.027h-4.548
	c0,0,0-18.458,0-18.586c0-2.051-0.284-3.773-0.852-5.161c-0.569-1.39-1.378-2.431-2.428-3.126c-1.054-0.697-2.303-1.046-3.761-1.046
	h-0.095c-1.76,0-3.162,0.437-4.213,1.302c-1.049,0.866-1.783,1.896-2.2,3.084c-0.42,1.189-0.627,2.335-0.627,3.432v20.101h-4.595
	V143.381z M39.199,122.11c0-1.15-0.934-2.086-2.084-2.086c-1.154,0-2.092,0.936-2.092,2.086v21.271h4.176V122.11z M7.269,113.253
	c0-1.152-0.938-2.086-2.086-2.086c-1.154,0-2.088,0.934-2.088,2.086v30.128h4.174V113.253z"/>
<path fill="#8DC63F" d="M-4.271,134.135c0,1.275-1.037,2.312-2.315,2.312h-8.265c-1.277,0-2.313-1.036-2.313-2.312
	c0-1.277,1.035-2.313,2.313-2.313h8.265C-5.309,131.822-4.271,132.857-4.271,134.135 M37.115,113.103
	c-1.396,0-2.521,1.13-2.521,2.521c0,1.394,1.125,2.521,2.521,2.521c1.393,0,2.52-1.127,2.52-2.521
	C39.634,114.232,38.507,113.103,37.115,113.103z"/>
<path fill="#8DC63F" d="M-27.437,136.922c-4.651,8.365-15.204,11.379-23.571,6.728c-8.366-4.651-11.381-15.204-6.729-23.57
	c4.651-8.365,15.205-11.379,23.572-6.729C-25.798,118.001-22.783,128.553-27.437,136.922z"/>
<path fill="#FFFFFF" d="M-34.115,118.888v10.425c-0.069,1.689-0.473,3.205-1.21,4.554c-0.736,1.347-1.725,2.39-2.966,3.133
	c-1.24,0.743-2.615,1.116-4.132,1.116c-1.656,0-3.138-0.373-4.439-1.121c-1.301-0.743-2.318-1.84-3.058-3.29
	c-0.733-1.446-1.116-3.172-1.139-5.172v-9.645h3.305c0,0,0,9.232,0,9.324c0,1.493,0.208,2.74,0.621,3.749
	c0.415,1.01,1,1.766,1.763,2.271c0.766,0.507,1.674,0.76,2.73,0.76h0.072c1.278,0,2.297-0.314,3.063-0.945
	c0.758-0.631,1.296-1.377,1.598-2.242c0.302-0.862,0.458-1.695,0.458-2.494v-10.423H-34.115z"/>
<path fill="#FFFFFF" d="M-42.585,118.888c0.924,0,1.681,0.752,1.681,1.68v4.779c0,0.926-0.756,1.68-1.681,1.68
	c-0.93,0-1.682-0.754-1.682-1.68v-4.779C-44.267,119.64-43.515,118.888-42.585,118.888"/>
<path fill="#FFFFFF" d="M-42.588,112.511c8.816,0,15.987,7.172,15.987,15.988c0,8.815-7.171,15.985-15.987,15.985
	c-8.815,0-15.987-7.17-15.987-15.985C-58.575,119.683-51.403,112.511-42.588,112.511 M-42.588,111.978
	c-9.124,0-16.52,7.396-16.52,16.521c0,9.122,7.396,16.519,16.52,16.519c9.125,0,16.521-7.396,16.521-16.519
	C-26.067,119.374-33.462,111.978-42.588,111.978L-42.588,111.978z"/>
</svg>
