<?xml version="1.0" encoding="utf-8"?>
<!-- Generator: Adobe Illustrator 16.0.3, SVG Export Plug-In . SVG Version: 6.00 Build 0)  -->
<!DOCTYPE svg PUBLIC "-//W3C//DTD SVG 1.1//EN" "http://www.w3.org/Graphics/SVG/1.1/DTD/svg11.dtd">
<svg version="1.1" id="Layer_1" xmlns="http://www.w3.org/2000/svg" xmlns:xlink="http://www.w3.org/1999/xlink" x="0px" y="0px"
	 width="450px" height="115px" viewBox="-63.5 64.5 450 115" enable-background="new -63.5 64.5 450 115" xml:space="preserve">
<polygon fill="#FB3370" points="-63.226,64.5 386.774,64.5 386.774,150.679 358.585,179.5 -63.226,179.5 "/>
<path fill="#FFFFFF" d="M325.251,136.486c-0.013,1.771,0.389,3.06,1.191,3.875c0.817,0.804,2.105,1.206,3.882,1.19h5.903v-4.897
	h-3.492c-0.584,0-1.038-0.153-1.358-0.444c-0.305-0.303-0.472-0.763-0.472-1.386V88.23c0.016-1.772-0.389-3.061-1.192-3.879
	c-0.814-0.804-2.106-1.203-3.88-1.19h-5.903v4.903h3.491c0.583,0,1.041,0.166,1.359,0.469c0.305,0.318,0.471,0.775,0.471,1.357
	V136.486z"/>
<g>
	<path fill="#FFFFFF" d="M359.493,152.356c1.302-0.01,2.506-0.256,3.606-0.736c1.141-0.493,2.127-1.169,2.979-2.046
		c0.844-0.877,1.505-1.896,1.967-3.063c0.479-1.172,0.716-2.443,0.721-3.818c-0.004-1.354-0.242-2.613-0.721-3.778
		c-0.462-1.165-1.123-2.183-1.967-3.051c-0.853-0.88-1.838-1.56-2.979-2.05c-1.101-0.48-2.305-0.736-3.606-0.748
		c-1.394,0-2.603,0.258-3.713,0.748c-1.105,0.49-2.085,1.17-2.905,2.05c-0.832,0.87-1.479,1.887-1.945,3.051
		c-0.461,1.165-0.704,2.423-0.704,3.778c0,1.375,0.242,2.646,0.704,3.818c0.467,1.17,1.113,2.188,1.945,3.063
		c0.82,0.877,1.799,1.554,2.905,2.046c1.111,0.493,2.32,0.736,3.619,0.736H359.493z M359.493,131.38
		c1.22,0.012,2.366,0.21,3.454,0.575c1.121,0.372,2.139,0.903,3.071,1.599c0.923,0.68,1.734,1.498,2.412,2.437
		c0.686,0.946,1.205,1.978,1.582,3.108c0.373,1.139,0.56,2.332,0.56,3.594c0,1.281-0.187,2.494-0.56,3.627
		c-0.377,1.138-0.896,2.179-1.582,3.113c-0.678,0.947-1.489,1.76-2.412,2.451c-0.934,0.684-1.951,1.217-3.071,1.584
		c-1.088,0.377-2.234,0.563-3.454,0.575c-1.312,0-2.47-0.198-3.57-0.575c-1.104-0.367-2.116-0.9-3.028-1.584
		c-0.914-0.691-1.712-1.503-2.387-2.451c-0.674-0.935-1.193-1.977-1.563-3.113c-0.371-1.133-0.557-2.346-0.562-3.627
		c0.005-1.262,0.19-2.455,0.562-3.594c0.37-1.133,0.89-2.162,1.563-3.108c0.675-0.938,1.473-1.757,2.387-2.437
		c0.912-0.695,1.925-1.227,3.028-1.599c1.102-0.377,2.26-0.575,3.477-0.575H359.493z"/>
	<path fill="#FFFFFF" d="M359.493,142.481h0.251c0.661-0.012,1.19-0.209,1.57-0.596c0.383-0.396,0.581-0.947,0.581-1.648
		c0-0.691-0.198-1.23-0.581-1.592c-0.379-0.373-0.909-0.563-1.57-0.563h-0.251h-2.027v4.399H359.493z M359.493,136.623h0.562
		c0.729,0,1.361,0.149,1.906,0.442c0.545,0.307,0.978,0.725,1.28,1.266c0.307,0.536,0.461,1.169,0.469,1.906
		c-0.007,0.594-0.124,1.124-0.346,1.564c-0.217,0.452-0.496,0.807-0.842,1.088c-0.347,0.271-0.709,0.528-1.092,0.621l0.206,0.127
		c0.131,0.082,0.269,0.262,0.416,0.529l1.406,2.795c0.099,0.186,0.222,0.303,0.372,0.35c0.156,0.047,0.313,0.065,0.472,0.059h0.31
		v1.404h-0.902c-0.297,0-0.551-0.01-0.762-0.059c-0.198-0.041-0.384-0.128-0.539-0.256c-0.156-0.143-0.303-0.346-0.448-0.621
		l-1.684-3.305c-0.152-0.288-0.314-0.475-0.479-0.564l-0.305-0.095l-0.338-0.024h-1.689v4.924h-1.749v-10.692h-1.119v-1.459H359.493
		z"/>
</g>
<path fill="#FFFFFF" d="M229.212,141.554h5.653v-20.018c0-0.998,0.042-1.967,0.14-2.923c0.111-0.94,0.276-1.854,0.523-2.725
	c0.65-2.313,1.733-4.361,3.202-6.119c1.482-1.772,3.258-3.158,5.323-4.153c2.05-0.995,4.293-1.509,6.694-1.522
	c1.993,0.016,3.604,0.348,4.82,1.01c1.207,0.668,2.12,1.565,2.731,2.715c0.623,1.148,1.024,2.464,1.233,3.943
	c0.206,1.482,0.291,3.045,0.276,4.711v20.015c-0.015,1.771,0.389,3.06,1.19,3.875c0.819,0.804,2.107,1.205,3.88,1.191h5.904v-4.898
	h-3.491c-0.583,0-1.04-0.153-1.343-0.444c-0.322-0.303-0.488-0.763-0.488-1.386v-19.853c0.015-3.444-0.428-6.365-1.33-8.773
	c-0.914-2.409-2.396-4.249-4.462-5.512c-2.064-1.258-4.808-1.896-8.261-1.908c-1.954,0.012-3.739,0.249-5.349,0.734
	c-1.606,0.469-3.05,1.094-4.309,1.883c-1.263,0.775-2.37,1.632-3.3,2.559c-0.93,0.941-1.705,1.87-2.314,2.813
	c-0.611,0.929-1.053,1.783-1.358,2.561h-0.165c0-0.027,0.024-0.316,0.083-0.87c0.042-0.567,0.07-1.276,0.082-2.118v-1.91
	c0-1.58-0.399-2.742-1.233-3.519c-0.815-0.763-2.093-1.136-3.84-1.136h-5.817v4.902h3.489c0.583,0,1.041,0.168,1.359,0.471
	c0.305,0.315,0.472,0.774,0.472,1.355v35.05H229.212z"/>
<path fill="#FFFFFF" d="M49.035,141.478v-3.164h-2.661c-0.752,0-1.491,0.246-2.027-0.293c-0.564-0.563-0.66-1.328-0.66-2.096
	v-35.886h-3.527v19.389c0,2.439-0.269,5.097-1.024,7.423c-0.717,2.219-2.052,4.599-3.501,6.457
	c-1.404,1.801-3.309,3.082-5.357,4.155c-2.13,1.125-4.464,1.646-6.883,1.646c-1.819,0-4.022-0.282-5.611-1.19
	c-1.371-0.784-2.421-1.771-3.134-3.149c-0.722-1.396-1.238-3.271-1.452-4.813c-0.415-6.278-0.208-18.564-0.208-25.473
	c0-1.062-0.144-2.396-0.938-3.207c-0.786-0.805-2.141-1.23-3.217-1.23H4.024v3.164h2.934c0.773,0,1.52-0.045,2.054,0.516
	c0.533,0.559,0.452,1.58,0.452,2.321v20.309c0,3.033,0.288,6.357,1.39,9.22c0.833,2.171,2.168,3.89,4.211,5.122
	c2.233,1.347,4.986,1.849,7.576,1.836c5.434-0.021,9.36-1.416,13.229-5c1.701-1.575,2.606-2.667,4.443-6.311
	c0,2.135-0.168,4.221-0.076,6.447c0,1.044,0.263,1.999,1.059,2.779c0.795,0.775,1.752,1.031,2.824,1.031h4.917V141.478z"/>
<path fill="#FFFFFF" d="M58.455,141.517h3.528v-17.593c0-1.426,0.097-3.102,0.284-4.521c0.379-2.871,2.01-8.748,3.989-10.9
	c1.168-1.688,2.737-2.991,4.502-4.048c1.771-1.063,3.461-1.1,5.528-1.105c0.385-0.002,0.773,0.015,1.157,0.049v-3.525
	c-0.437-0.07-0.885-0.102-1.328-0.104c-1.922-0.02-4-0.09-5.672,0.859c-4.172,1.387-7.173,6.167-8.527,10.483v-0.908
	c0-0.104,0.02-0.231,0.028-0.338c0.035-1.79,0.042-3.188,0.042-5.123c0.035-1.287-0.241-2.828-1.027-3.57
	c-0.798-0.757-1.965-1.163-3.007-1.163h-4.874v3.184h2.744c0.741,0,1.66-0.043,2.191,0.501c0.527,0.544,0.442,1.706,0.442,2.448
	V141.517z"/>
<path fill="#FFFFFF" d="M295.109,116.387h13.098c-0.098-2.162-0.473-4.043-1.124-5.66c-0.651-1.608-1.512-2.951-2.591-4.016
	c-1.081-1.068-2.315-1.867-3.699-2.408c-1.374-0.527-2.844-0.787-4.395-0.787c-0.436,0-0.864,0.014-1.289,0.051
	c-1.269,0.104-2.488,0.361-3.672,0.775c-1.565,0.555-3.011,1.372-4.297,2.465c-1.274,1.082-2.369,2.426-3.257,4.028
	c-0.886,1.606-1.512,3.446-1.871,5.552H295.109z M295.109,98.819c0.453-0.029,0.91-0.041,1.372-0.041
	c2.898,0.012,5.434,0.542,7.622,1.549c2.188,1.012,4.021,2.412,5.487,4.194c1.469,1.772,2.579,3.82,3.327,6.134
	c0.734,2.312,1.108,4.776,1.108,7.391c0,0.349-0.015,0.735-0.043,1.179l-0.085,1.135l-0.04,0.514h-18.751h-13.345
	c0.054,2.646,0.513,4.981,1.385,7.046c0.874,2.051,2.049,3.794,3.534,5.219c1.499,1.414,3.215,2.491,5.143,3.238
	c1.058,0.402,2.149,0.697,3.283,0.879c0.933,0.152,1.889,0.229,2.867,0.229c1.539-0.014,2.952-0.194,4.243-0.538
	c1.302-0.331,2.467-0.763,3.477-1.273c1.026-0.513,1.898-1.012,2.621-1.522c0.72-0.512,1.273-0.94,1.648-1.273
	c0.374-0.347,0.567-0.527,0.567-0.541l2.744,4.236c0,0.016-0.235,0.223-0.706,0.625c-0.471,0.4-1.151,0.885-2.038,1.479
	c-0.886,0.598-1.97,1.178-3.229,1.773c-1.276,0.597-2.718,1.078-4.323,1.48c-1.595,0.401-3.354,0.609-5.256,0.625
	c-0.89-0.006-1.763-0.055-2.616-0.144c-2.13-0.226-4.139-0.715-6.029-1.468c-2.646-1.049-4.961-2.545-6.931-4.481
	c-1.98-1.938-3.518-4.251-4.611-6.907c-1.098-2.674-1.664-5.623-1.679-8.849c0.015-3.434,0.567-6.505,1.65-9.203
	c1.064-2.714,2.547-5.012,4.446-6.895c1.899-1.896,4.089-3.338,6.57-4.332C290.601,99.452,292.793,98.958,295.109,98.819z"/>
<path fill="#FFFFFF" d="M155.704,137.565c1.827-0.014,3.543-0.397,5.143-1.135c1.62-0.762,3.048-1.854,4.281-3.311
	c1.233-1.451,2.204-3.21,2.898-5.301c0.706-2.076,1.051-4.459,1.064-7.116c-0.015-3.419-0.583-6.38-1.689-8.887
	c-1.108-2.506-2.648-4.444-4.629-5.813c-1.981-1.368-4.281-2.063-6.901-2.077c-1.866,0.01-3.504,0.34-5.059,0.969
	c-1.621,0.64-3.063,1.65-4.338,3.008c-1.274,1.354-2.287,3.111-3.021,5.244c-0.748,2.133-1.123,4.68-1.137,7.643
	c0,2.118,0.292,4.166,0.846,6.162c0.567,1.989,1.414,3.778,2.535,5.368c1.111,1.592,2.51,2.863,4.159,3.805
	c1.662,0.943,3.576,1.414,5.764,1.441H155.704z M155.704,98.809l0.999-0.029c2.813,0.012,5.333,0.554,7.58,1.605
	c2.244,1.053,4.158,2.563,5.738,4.496c1.579,1.939,2.783,4.251,3.629,6.938c0.833,2.671,1.263,5.632,1.263,8.886
	c-0.016,3.31-0.486,6.313-1.4,8.983c-0.93,2.673-2.217,4.971-3.893,6.896c-1.679,1.91-3.661,3.376-5.933,4.415
	c-2.273,1.024-4.769,1.538-7.484,1.554l-0.5-0.016c-1.833-0.063-3.451-0.32-4.851-0.805c-1.539-0.524-2.827-1.178-3.894-1.967
	c-1.068-0.775-1.94-1.549-2.592-2.324c-0.666-0.787-1.137-1.439-1.44-1.967c-0.305-0.523-0.445-0.789-0.445-0.816l-0.083,1.025
	c0.042,0.648,0.068,1.537,0.083,2.629v19.854h-5.652v-51.664c0-0.581-0.168-1.04-0.47-1.356c-0.32-0.303-0.777-0.471-1.359-0.471
	h-3.492v-4.9h5.738c1.772,0,3.046,0.373,3.837,1.107c0.775,0.747,1.165,1.842,1.15,3.295c0,0.846-0.014,1.521-0.042,2.032
	l-0.04,0.79c0.166-0.029,0.306-0.303,0.598-0.855c0.303-0.539,0.773-1.234,1.454-2.035c0.664-0.816,1.553-1.62,2.661-2.438
	c1.111-0.815,2.481-1.493,4.103-2.032C152.337,99.169,153.917,98.898,155.704,98.809z"/>
<path fill="#FFFFFF" d="M198.196,103.516c-0.389,0.01-0.857,0.037-1.399,0.08c-0.666,0.057-1.371,0.166-2.122,0.318
	c-0.748,0.152-1.44,0.361-2.104,0.637c-0.668,0.278-1.208,0.625-1.624,1.055c-0.415,0.426-0.638,0.955-0.648,1.561v2.66h-5.407
	v-3.989c0.028-1.159,0.375-2.142,1.068-2.96c0.69-0.832,1.578-1.494,2.672-2.033c1.109-0.541,2.274-0.955,3.523-1.248
	c1.233-0.303,2.424-0.524,3.545-0.637c0.976-0.105,1.807-0.163,2.496-0.178l0.332-0.002c3.285,0.012,6.003,0.429,8.136,1.246
	c2.133,0.818,3.811,1.953,5.017,3.404c1.208,1.451,2.053,3.156,2.524,5.092c0.485,1.939,0.72,4.029,0.705,6.285v20.019
	c0,0.623,0.166,1.083,0.487,1.386c0.303,0.291,0.761,0.444,1.343,0.444h3.491v4.898h-5.735c-1.773,0-3.05-0.401-3.841-1.221
	c-0.775-0.813-1.161-2.063-1.149-3.766c0-0.926,0.014-1.658,0.042-2.211l0.04-0.861c-0.15,0.014-0.233,0.236-0.442,0.667
	c-0.193,0.438-0.514,0.995-0.956,1.688c-0.442,0.676-1.025,1.396-1.745,2.172c-0.723,0.762-1.597,1.498-2.636,2.173
	c-1.024,0.69-2.231,1.247-3.603,1.688c-0.632,0.197-1.299,0.35-2.009,0.461c-0.831,0.129-1.719,0.196-2.662,0.207
	c-1.759,0-3.492-0.252-5.17-0.763c-1.676-0.517-3.2-1.29-4.559-2.313c-1.356-1.024-2.439-2.312-3.255-3.861
	c-0.806-1.553-1.221-3.362-1.233-5.439c0.025-2.298,0.485-4.265,1.399-5.884c0.897-1.62,2.121-2.948,3.631-4.001
	c1.523-1.065,3.202-1.896,5.059-2.504c1.857-0.61,3.74-1.056,5.667-1.343l1.123-0.156c1.505-0.189,2.944-0.316,4.324-0.384
	c1.704-0.07,3.172-0.112,4.406-0.099h2.33v-0.498c0.014-2.894-0.36-5.205-1.094-6.938c-0.748-1.729-1.914-2.975-3.508-3.734
	c-1.595-0.762-3.672-1.136-6.208-1.121h-0.25V103.516z M198.196,137.59c0.935-0.145,1.816-0.405,2.646-0.784
	c1.346-0.596,2.525-1.414,3.564-2.465c1.04-1.039,1.927-2.218,2.647-3.557c0.722-1.33,1.261-2.727,1.637-4.195
	c0.374-1.468,0.568-2.935,0.568-4.389v-1.91h-2.413c-1.106-0.012-2.355,0.015-3.743,0.056c-1.384,0.041-2.812,0.152-4.279,0.332
	l-0.625,0.084c-1.259,0.178-2.482,0.443-3.672,0.788c-1.387,0.389-2.634,0.94-3.743,1.646c-1.106,0.695-1.981,1.595-2.646,2.673
	c-0.651,1.094-0.985,2.411-1,3.972c0,0.983,0.193,1.953,0.583,2.881c0.388,0.928,0.956,1.772,1.731,2.533
	c0.776,0.748,1.746,1.344,2.912,1.803c1.165,0.439,2.536,0.662,4.086,0.676C197.05,137.728,197.631,137.681,198.196,137.59z"/>
<path fill="#FFFFFF" d="M104.489,139.288c2.444,0,4.77-0.463,6.962-1.424c2.152-0.941,4.041-2.27,5.655-3.948
	c1.657-1.726,2.923-3.722,3.815-5.921c0.955-2.354,1.391-4.852,1.391-7.382c0-2.479-0.439-4.903-1.396-7.201
	c-0.894-2.152-2.166-4.096-3.822-5.766c-1.622-1.633-3.516-2.905-5.657-3.812c-2.194-0.927-4.516-1.376-6.907-1.376
	c-2.435,0.008-4.754,0.454-6.948,1.376c-2.152,0.903-4.048,2.175-5.684,3.81c-1.669,1.666-2.929,3.609-3.829,5.768
	c-0.956,2.303-1.406,4.719-1.406,7.201c0,2.534,0.45,5.022,1.404,7.382c0.892,2.204,2.148,4.205,3.817,5.926
	c1.632,1.68,3.519,3.002,5.685,3.943C99.765,138.82,102.087,139.28,104.489,139.288z M104.489,98.951
	c2.893,0.005,5.702,0.536,8.377,1.646c2.58,1.068,4.872,2.588,6.856,4.549c1.999,1.973,3.534,4.271,4.624,6.856
	c1.16,2.742,1.692,5.636,1.692,8.61c0,3.026-0.533,5.991-1.695,8.794c-1.086,2.627-2.613,4.979-4.613,7.004
	c-1.974,1.997-4.254,3.529-6.841,4.632c-2.661,1.125-5.466,1.669-8.356,1.669c-2.934-0.005-5.738-0.548-8.403-1.672
	c-2.594-1.096-4.888-2.632-6.867-4.632c-2.011-2.022-3.535-4.374-4.63-7.004c-1.167-2.794-1.701-5.765-1.693-8.788
	c0.007-2.974,0.533-5.871,1.693-8.613c1.091-2.587,2.628-4.883,4.623-6.86c1.978-1.957,4.254-3.477,6.828-4.545
	c2.668-1.111,5.476-1.646,8.365-1.646H104.489z"/>
<path fill="#FFFFFF" d="M-20.628,116.883h14.723c-0.192-4.213-1.056-7.963-4.368-11.166c-1.167-1.129-2.536-2.027-4.114-2.623
	c-1.546-0.587-3.187-0.859-4.862-0.859c-0.462,0-0.923,0.019-1.378,0.054c-1.379,0.108-2.729,0.386-4.035,0.835
	c-1.748,0.605-3.34,1.482-4.7,2.645c-3.458,2.959-4.851,6.053-5.812,10.106l-0.175,1.011h14.721V116.883z M-20.628,99.169
	c0.483-0.028,0.971-0.048,1.461-0.043c2.553,0.005,5.064,0.435,7.358,1.504c2.095,0.979,3.852,2.337,5.269,4.071
	c1.484,1.82,2.547,3.863,3.241,6.048c0.987,3.112,1.243,6.257,0.992,9.478h-18.321h-15.016l0.021,1.372
	c0.053,2.586,0.466,4.639,1.483,7.055c0.882,2.109,2.394,4.326,4.088,5.959c1.593,1.531,3.553,2.641,5.666,3.462
	c1.2,0.468,2.466,0.741,3.756,0.889c0.993,0.113,1.999,0.15,2.997,0.146c1.554-0.004,3.096-0.192,4.592-0.59
	c3.729-1.088,5.336-2.144,8.099-4.487L-3,136.882c-0.762,0.657-1.709,1.377-2.378,1.83c-0.987,0.67-2.082,1.239-3.168,1.756
	c-1.339,0.635-2.787,1.096-4.232,1.465c-1.664,0.422-3.394,0.607-5.114,0.61c-0.921,0-1.835-0.047-2.737-0.151
	c-1.962-0.223-3.872-0.695-5.715-1.434c-2.576-1.036-4.928-2.518-6.848-4.422c-1.791-1.777-3.168-3.822-4.178-6.057l-0.336-0.782
	c-1.147-2.826-1.56-5.806-1.56-8.822c0-3.121,0.471-6.257,1.627-9.197l0.269-0.662c0.968-2.261,2.289-4.359,4.078-6.156
	c1.813-1.825,3.931-3.272,6.384-4.264C-24.895,99.783-22.792,99.311-20.628,99.169z"/>
</svg>
