<?xml version="1.0" encoding="utf-8"?>
<!DOCTYPE svg PUBLIC "-//W3C//DTD SVG 1.1//EN" "http://www.w3.org/Graphics/SVG/1.1/DTD/svg11.dtd">
<svg version="1.1" id="Layer_1" xmlns="http://www.w3.org/2000/svg" xmlns:xlink="http://www.w3.org/1999/xlink" x="0px" y="0px"
	 width="215px" height="72px" viewBox="-107 92.5 215 72" enable-background="new -107 92.5 215 72" xml:space="preserve">
	<path id="XMLID_121_" fill="#FFFFFF" d="M-10.628,137.231c-0.397-0.689-0.794-1.377-1.19-2.064
		c-0.027-0.079-0.08-0.159-0.105-0.238c-0.054-0.08-0.106-0.158-0.159-0.239c-0.053,0.081-0.106,0.133-0.159,0.213
		c-0.105,0-0.265-0.08-0.291-0.027c-0.132,0.159-0.053,0.267,0.106,0.344c0.291,0.53,0.608,1.086,0.899,1.642
		c0.105,0.186,0.08,0.423,0.132,0.66c-1.35-0.052-2.698-0.104-4.021-0.158c-0.265-0.079-0.503-0.159-0.767-0.265
		c-0.132-0.105-0.265-0.211-0.396-0.318c0.026-0.078,0-0.132-0.08-0.186c-0.053-0.078-0.132-0.184-0.185-0.263
		c-1.005-1.746-2.01-3.492-3.016-5.238c-1.19-2.036-2.407-4.074-3.625-6.111c-0.74-1.216-1.455-2.461-2.169-3.677
		c-0.08-0.211-0.159-0.45-0.291-0.635c-0.106-0.158-0.133-0.45-0.477-0.45c0,0.267,0.026,0.478,0.026,0.688
		c0,1.059-0.026,2.143-0.026,3.202c0,3.649,0,7.3,0,10.949c0,0.425,0.106,0.849,0.159,1.271c0.026,0.079,0.08,0.159,0.105,0.211
		c0.08,0.08,0.159,0.159,0.238,0.237c0.08,0.027,0.132,0.054,0.212,0.107c0.159,0.052,0.317,0.105,0.476,0.159
		c0.026,0.078,0.079,0.157,0.106,0.237c-0.053,0.025-0.106,0.079-0.106,0.133c-2.566,0-5.106,0-7.672-0.027
		c-1.111,0-2.196-0.026-3.307-0.026c-0.026-0.344,0.317-0.29,0.477-0.45c0.053-0.052,0.105-0.079,0.158-0.133
		c0.423-0.289,0.635-0.66,0.609-1.189c-0.027-0.237,0-0.477,0-0.715c0-10.713,0-21.453,0-32.168c0-0.289-0.027-0.556,0-0.845
		c0.053-0.504-0.238-0.795-0.582-1.086c-0.106-0.344-0.397-0.265-0.635-0.291c0-0.105,0-0.238,0-0.343c1.614,0,3.254,0,4.868,0
		c2.01,0,4.047-0.027,6.058-0.027c0,0.132,0,0.265,0.027,0.396c-0.265-0.026-0.53,0.027-0.714,0.265
		c-0.08,0.08-0.16,0.159-0.238,0.237c-0.054,0.081-0.08,0.159-0.132,0.239c-0.053,0.316-0.133,0.609-0.133,0.926
		c0,4.734,0,9.47,0,14.231c0,0.107,0.027,0.239,0.027,0.345c0,0.265,0,0.504,0,0.819c0.45-0.344,0.45-0.344,0.635-0.819
		c0.529-0.448,0.899-1.059,1.429-1.375c0.582,0.026,0.396,0.952,1.058,0.767c0.027-0.556,0.027-0.556-0.264-1.06
		c-0.027-0.077-0.053-0.157-0.08-0.237c0-0.105,0.027-0.185,0.027-0.29c0.053-0.132,0.106-0.266,0.159-0.425
		c0.74-0.793,1.614-1.48,2.275-2.379c0.186,0,0.344,0,0.529,0c-0.106,0.264,0,0.448,0.132,0.66c1.084,1.878,2.195,3.757,3.28,5.636
		c1.322,2.275,2.671,4.576,3.995,6.852c1.692,2.908,3.386,5.792,5.105,8.676c0.449,0.795,0.899,1.588,1.376,2.355
		c0.185,0.291,0.423,0.556,0.634,0.818c0.053,0.054,0.132,0.08,0.186,0.134c0.185,0.132,0.556,0.105,0.476,0.502
		c-1.376,0-2.725,0-4.1-0.026C-9.888,137.469-10.312,137.546-10.628,137.231z M-14.412,130.961c0.265-0.159,0-0.238-0.053-0.344
		c-0.026-0.08-0.053-0.134-0.106-0.212c-0.185-0.318-0.396-0.663-0.582-0.978c-0.027-0.082-0.08-0.16-0.106-0.239
		c-0.185-0.317-0.396-0.636-0.582-0.98c-0.026-0.077-0.079-0.157-0.105-0.236c-0.053-0.08-0.105-0.16-0.158-0.237
		c-0.027-0.082-0.08-0.16-0.106-0.239c-0.688-1.191-1.376-2.407-2.063-3.598c-0.053-0.106-0.132-0.212-0.211-0.266
		c-0.054-0.052-0.186-0.052-0.212-0.025c-0.08,0.052-0.185,0.159-0.211,0.265c-0.027,0.105,0.026,0.239,0.079,0.316
		c0.662,1.112,1.35,2.25,2.011,3.361c0.053,0.078,0.079,0.157,0.131,0.263c0.053,0.08,0.08,0.134,0.133,0.212
		c0.053,0.081,0.105,0.159,0.159,0.267c0.185,0.315,0.37,0.634,0.555,0.952c0.053,0.078,0.08,0.157,0.133,0.237
		c0.211,0.396,0.317,0.847,0.741,1.085l0.026,0.026c-0.106,0.104-0.106,0.104,0.053,0.289l0,0c0.08,0.134,0.159,0.239,0.238,0.371
		c0.159,0.267,0.318,0.556,0.477,0.82c0.053,0.105,0.105,0.186,0.159,0.291c0.317,0.556,0.661,1.111,0.978,1.667
		c0.08,0.317,0.186,0.634,0.529,0.741c0.291,0.078,0.37-0.054,0.291-0.318c-0.079-0.026-0.184-0.052-0.264-0.052
		c0.396-0.186,0.08-0.318-0.027-0.479v-0.077l-0.106-0.08c-0.291-0.477-0.582-0.979-0.873-1.454c-0.027-0.08-0.08-0.159-0.106-0.239
		c-0.211-0.37-0.317-0.82-0.74-1.032l-0.027-0.025L-14.412,130.961z M-21.819,119.136c0.08,0.105,0.132,0.213,0.212,0.316
		c0.767,1.377,1.561,2.753,2.354,4.102c0.027,0.053,0.106,0.132,0.159,0.158c0.186,0.105,0.37,0.079,0.555-0.211
		c-0.873-1.377-1.587-2.911-2.592-4.286c-0.529-0.926-1.058-1.878-1.587-2.805c-0.053-0.104-0.185-0.157-0.264-0.211
		c-0.212-0.159-0.344-0.078-0.503,0.211C-22.982,117.284-22.401,118.211-21.819,119.136z"/>
	<path id="XMLID_118_" fill="#FFFFFF" d="M106.906,136.49c0.211,0.289,0,0.448-0.159,0.634l-0.054,0.025
		c-0.078,0.054-0.186,0.107-0.263,0.186c-0.477,0.267-0.953,0.504-1.403,0.768c-0.157,0.081-0.316,0.133-0.476,0.213
		c-0.237,0.079-0.477,0.157-0.741,0.238c-0.237,0.078-0.475,0.13-0.741,0.212h-0.104l-0.107,0.052
		c-0.317,0.079-0.66,0.133-0.979,0.211l-0.105-0.025l-0.105,0.025c-1.189,0-2.381,0-3.572,0H98.07
		c-0.396-0.078-0.793-0.132-1.189-0.211l-0.107-0.052h-0.105c-0.238-0.082-0.502-0.16-0.739-0.212h-0.027
		c-0.158-0.055-0.317-0.133-0.477-0.186c-0.211-0.106-0.448-0.185-0.661-0.292c-0.105-0.052-0.186-0.132-0.291-0.186l-0.026-0.025
		c-0.052,0-0.133,0-0.185-0.026c-0.291-0.133-0.371-0.53-0.793-0.582c-0.266-0.025-0.479-0.37-0.716-0.582
		c-0.344-0.318-0.661-0.662-0.978-0.979c-0.054-0.132-0.107-0.291-0.186-0.423l-0.026-0.054c-0.054-0.077-0.133-0.131-0.185-0.211
		c-0.741-1.217-1.297-2.538-1.801-3.861c-0.026-0.081-0.053-0.159-0.104-0.238c-0.025-0.16-0.081-0.317-0.107-0.45
		c-0.025-0.106-0.077-0.186-0.104-0.291c-0.134-0.528-0.267-1.084-0.398-1.614c-0.025-0.078-0.054-0.185-0.105-0.263
		c-0.052-0.239-0.133-0.452-0.186-0.689c0-0.026,0.053-0.078,0.026-0.078c-0.026-0.055-0.078-0.107-0.105-0.159
		c-0.026-0.159-0.08-0.318-0.105-0.478c-0.026-0.104-0.078-0.186-0.106-0.289c-0.053-0.212-0.131-0.45-0.185-0.663
		c-0.026-0.078-0.054-0.158-0.08-0.237c-0.025-0.159-0.078-0.317-0.105-0.477c-0.026-0.079-0.08-0.186-0.105-0.265
		c-0.052-0.159-0.105-0.317-0.134-0.448c-0.025-0.082-0.077-0.159-0.104-0.239c-0.267-1.006-0.795-1.851-1.456-2.618
		c-0.078-0.081-0.159-0.133-0.211-0.211l-0.026-0.027c-0.054,0-0.134,0-0.186-0.028c-0.107-0.078-0.211-0.157-0.292-0.211
		c-0.053-0.211-0.212-0.264-0.423-0.211l-0.105-0.053h-0.105c-0.237-0.107-0.477-0.37-0.688,0.026
		c-0.028,0.265-0.08,0.556-0.08,0.819c0,4.498,0,9.022,0,13.519c0,0.396,0.105,0.768,0.159,1.164
		c0.026,0.079,0.078,0.157,0.104,0.238c0.081,0.078,0.159,0.158,0.267,0.237c0.157,0.053,0.289,0.134,0.448,0.186
		c0.159,0.08,0.292,0.186,0.237,0.371c-0.739,0-1.48,0-2.22,0c-1.006-0.026-2.012-0.053-3.042-0.08c0-0.08,0-0.157,0-0.239
		c0-12.194,0-24.39,0-36.584c0-0.08,0-0.159,0-0.237c0.422-0.027,0.871-0.081,1.295-0.081c3.544,0.025,7.09,0.054,10.635,0.107
		c0.238,0.025,0.476,0.052,0.713,0.052c0.239,0.052,0.479,0.105,0.716,0.159c0.159,0.026,0.316,0.052,0.476,0.078
		c0.158,0.054,0.317,0.107,0.477,0.159c0.344,0.107,0.661,0.211,1.004,0.292c0.134,0.053,0.293,0.132,0.424,0.186
		c1.27,0.582,2.407,1.349,3.386,2.354c1.322,1.349,2.063,2.962,2.356,4.813c0.263,1.667,0.211,3.309-0.186,4.946
		c-0.027,0.107-0.027,0.239-0.027,0.345c-0.054,0.159-0.132,0.318-0.186,0.478c-0.396,0.925-0.873,1.824-1.48,2.618
		c-0.054,0.08-0.133,0.186-0.186,0.266l-0.025,0.052c-0.056,0.054-0.134,0.133-0.186,0.186c-0.107,0.106-0.213,0.211-0.293,0.29
		c-0.052,0.054-0.131,0.132-0.185,0.186l-0.053,0.027c-0.079,0.053-0.159,0.132-0.211,0.186c-0.795,0.475-1.615,0.979-2.408,1.453
		c-0.159,0.081-0.317,0.133-0.448,0.213c-0.239,0.079-0.504,0.157-0.741,0.265c-0.239,0.078-0.478,0.132-0.715,0.211h-0.026
		c-0.186,0.026-0.37,0.053-0.847,0.106c0.477,0.185,0.661,0.265,0.847,0.343c0.396,0.267,0.767,0.556,1.163,0.822
		c1.429,1.004,2.327,2.459,3.043,4.021c1.085,2.406,2.115,4.84,3.149,7.273c0.554,1.323,1.241,2.566,2.353,3.493
		c0.819,0.687,1.746,0.872,2.752,0.449C106.642,136.647,106.774,136.568,106.906,136.49z M84.023,120.379c1.111,0,2.115,0,3.096,0
		c0.239,0,0.477-0.052,0.713-0.105c1.616-0.343,2.753-1.377,3.572-2.726c0.741-1.241,1.216-2.592,1.429-3.994
		c0.316-2.064,0.316-4.099,0.026-6.163c-0.158-1.217-0.503-2.408-1.007-3.52c-0.314-0.739-0.739-1.401-1.295-1.982
		c-0.635-0.662-1.376-1.138-2.275-1.218c-1.058-0.105-2.144-0.079-3.199-0.027c-0.609,0.027-1.006,0.451-1.06,1.085
		c-0.026,0.266-0.026,0.557-0.026,0.819c0,5.61,0,11.19,0,16.801C83.997,119.638,84.023,119.931,84.023,120.379z"/>
	<path id="XMLID_117_" fill="#FFFFFF" d="M35.612,129.215c-0.026-0.158-0.08-0.317-0.105-0.45c-0.026-0.106-0.08-0.186-0.105-0.29
		c-0.186-1.06-0.398-2.117-0.556-3.175c-0.291-1.853-0.424-3.704-0.424-5.582c0-5.635,0-11.297,0-16.931
		c0-0.317,0.027-0.636-0.026-0.952c-0.052-0.266-0.185-0.503-0.263-0.768c-0.054-0.054-0.133-0.132-0.185-0.186l-0.026-0.025
		c-0.16-0.265-0.398-0.291-0.663-0.265l0,0c0.026-0.317,0.239-0.371,0.478-0.371c1.666,0,3.332,0.026,4.973,0.026
		c0,0.424,0.026,0.874,0.026,1.297c0,7.777,0,15.556,0,23.333c0,0.979,0.133,1.982,0.211,2.961c0.026,0.318,0.133,0.609,0.237,0.927
		c0.107,0.238,0.292,0.185,0.556,0.025c-0.026-0.263-0.052-0.582-0.104-0.871c-0.213-1.006-0.239-2.038-0.239-3.069
		c0-8.175,0-16.349,0-24.521c0.186-0.027,0.371-0.107,0.582-0.107c1.693,0,3.385,0,5.052,0c0.159,0,0.319,0.026,0.45,0.107
		c0.08,0.052,0.105,0.184,0.132,0.289h-0.026c-0.211-0.025-0.396-0.025-0.529,0.212c-0.158,0.159-0.29,0.318-0.449,0.478
		c-0.054,0.104-0.08,0.185-0.133,0.289c-0.026,0.398-0.078,0.795-0.078,1.191c0,7.275,0,14.523,0,21.798
		c0,2.063,0.078,4.127,0.449,6.163c0.159,0.77,0.344,1.536,0.582,2.304c0.371,1.189,0.926,2.247,1.853,3.146
		c-0.237,0-0.477,0-0.741,0h-0.026c-0.237-0.078-0.477-0.157-0.715-0.237c-0.159-0.079-0.344-0.159-0.502-0.211
		c-0.158-0.08-0.291-0.159-0.45-0.211h-0.026c-0.052,0-0.133,0-0.186,0c-1.164-0.582-2.09-1.431-2.962-2.383
		c-0.106-0.237-0.028-0.582-0.398-0.66c-0.211-0.396-0.448-0.767-0.66-1.163l-0.026-0.081c-0.239-0.608-0.452-1.242-0.689-1.852
		c-0.106-0.291-0.186-0.291-0.66-0.054c0.13,0.396,0.29,0.795,0.423,1.191c0.026,0.08,0.052,0.158,0.078,0.265
		c0.081,0.186,0.159,0.345,0.239,0.53c-0.026,0.078,0,0.13,0.105,0.157c1.085,2.433,2.911,4.101,5.397,5.053
		c0.026,0.026,0.08,0,0.105,0c0.08,0.052,0.186,0.08,0.265,0.133c0.396,0.104,0.793,0.212,1.191,0.317
		c0.157,0.054,0.315,0.105,0.474,0.132c0.239,0.025,0.478,0.054,0.715,0.107c-0.107,0.104-0.186,0.289-0.291,0.289
		c-0.502,0.025-1.006,0.025-1.508,0.025c-0.582-0.025-1.166-0.052-1.747-0.077l-0.104-0.053l-0.107,0.026
		c-0.289-0.211-0.634-0.239-0.979-0.211H43.47c-0.237-0.082-0.476-0.134-0.715-0.213c-0.237-0.08-0.475-0.158-0.741-0.266
		c-0.158-0.078-0.317-0.131-0.449-0.211c-0.053-0.052-0.107-0.078-0.185-0.078c-0.107-0.054-0.185-0.107-0.292-0.159l-0.052-0.026
		c-0.052,0-0.131,0-0.185,0c-0.345-0.238-0.688-0.478-1.03-0.715c-0.054-0.052-0.133-0.133-0.185-0.185l-0.054-0.026
		c-0.054,0-0.132-0.026-0.186-0.026c-0.502-0.478-1.006-0.952-1.48-1.43c-0.054-0.132-0.133-0.291-0.185-0.423l-0.028-0.025
		c-0.08-0.08-0.131-0.134-0.211-0.212c-0.767-1.111-1.295-2.382-1.773-3.625C35.692,129.374,35.64,129.294,35.612,129.215z"/>
	<path id="XMLID_116_" fill="#FFFFFF" d="M-58.589,100.856c-0.344,0.132-0.396,0.476-0.449,0.767
		c-0.054,0.239-0.027,0.477-0.027,0.714c0,5.186,0,10.397,0,15.581c0,0.186,0.027,0.396,0.053,0.582
		c-0.026,0.159,0.027,0.239,0.185,0.186c0.635,0,1.27,0,1.905,0c0.238-0.052,0.476-0.105,0.714-0.159
		c0.714-0.104,1.323-0.343,1.799-0.952c0.238-0.315,0.556-0.528,0.847-0.819c0.82-0.793,1.269-1.745,1.243-2.909
		c0.132-0.027,0.264-0.054,0.396-0.107c0,3.413-0.026,6.852-0.026,10.265c-0.291,0.025-0.318-0.132-0.345-0.291
		c-0.053-0.317-0.105-0.607-0.184-0.925c-0.054-0.107-0.08-0.186-0.133-0.293c-0.132-0.263-0.238-0.581-0.397-0.818
		c-0.661-0.927-1.455-1.72-2.513-2.224c-0.185-0.211-0.423-0.263-0.714-0.237l-0.106-0.052h-0.105
		c-0.82-0.37-1.692-0.213-2.539-0.133c-0.053,0-0.08,0.265-0.106,0.396c0,0.318-0.026,0.635-0.026,0.952
		c0,4.895,0.026,9.815,0,14.709c0,1.64,0.291,2.062,1.957,2.01c1.19-0.052,2.381-0.052,3.545-0.079
		c0.158-0.054,0.317-0.106,0.502-0.132c0.874-0.212,1.641-0.582,2.275-1.218c0.158-0.157,0.344-0.316,0.529-0.476
		c1.165-1.032,1.879-2.302,1.984-3.889c0-0.132,0-0.317,0.238-0.317c0.053,0.052,0.132,0.105,0.132,0.159
		c0.105,1.771,0.053,5.344-0.08,6.242c-0.238,0.054-0.503,0.132-0.767,0.132c-1.005,0.025-1.984,0-2.989,0c-3.254,0-6.508,0-9.761,0
		c-0.397,0-0.767,0-1.059,0c-0.131-0.104-0.158-0.132-0.185-0.158c-0.026-0.027-0.026-0.079-0.026-0.105c0-12.194,0-24.391,0-36.586
		c0-0.105,0.026-0.238,0.053-0.424c0.212-0.026,0.45-0.052,0.661-0.052c4.365,0,8.73,0,13.094,0c1.032,0,1.059,0.025,1.059,1.085
		c0,1.823,0,3.65,0,5.447c-0.238,0.081-0.371,0.028-0.397-0.185c-0.053-1.005-0.344-1.931-0.925-2.776
		c-0.133-0.185-0.212-0.396-0.397-0.556c-0.503-0.45-0.926-0.952-1.428-1.43c-0.185-0.186-0.45-0.264-0.688-0.371
		c-0.45-0.211-0.794-0.634-1.349-0.581c-0.635-0.371-1.297-0.237-1.958-0.186c-0.793,0-1.587,0-2.381,0c-0.079,0-0.159,0-0.238,0
		c-0.158,0-0.317,0.027-0.476,0.027C-58.271,100.725-58.431,100.776-58.589,100.856z"/>
	<path id="XMLID_115_" fill="#FFFFFF" d="M-68.827,100.565c0-0.08,0.026-0.159,0.026-0.237c0-0.027,0.053-0.081,0.106-0.159
		c1.507,0,3.042,0,4.603,0c0.159,0,0.317,0.052,0.503,0.078c0.053,0.186,0.158,0.37,0.158,0.556c0.027,0.318,0,0.636,0,0.952
		c0,11.401,0,22.804,0,34.18c0,0.476,0.08,0.952-0.079,1.374c-0.821,0.237-3.545,0.293-5.239,0.107
		c-0.079-0.185-0.026-0.238,0.159-0.344c0.317-0.212,0.609-0.45,0.953-0.689c0-0.423,0.026-0.819,0.026-1.216
		c0-10.872,0-21.773,0-32.645c0-0.212-0.026-0.396,0-0.582c0.08-0.502-0.238-0.793-0.582-1.084
		C-68.298,100.539-68.589,100.617-68.827,100.565z"/>
	<path id="XMLID_114_" fill="#FFFFFF" d="M19.132,113.765c0,3.412,0,6.8,0,10.212c-0.133-0.025-0.265-0.052-0.396-0.105
		c-0.054-0.37-0.107-0.714-0.133-1.084c-0.052-0.107-0.078-0.186-0.132-0.293c-0.185-0.502-0.398-0.978-0.794-1.374
		c-0.634-0.634-1.242-1.323-2.09-1.668c-0.186-0.211-0.423-0.289-0.714-0.237h-0.026c-0.847-0.396-1.747-0.237-2.618-0.211
		c-0.266,0-0.24,0.237-0.213,0.448c0,0.318-0.027,0.636-0.027,0.952c0,4.896,0,9.816,0,14.709c0,0.425-0.104,0.873,0.159,1.27
		c0.026,0.081,0.054,0.159,0.107,0.211c0.078,0.081,0.158,0.159,0.263,0.239c0.08,0.079,0.159,0.159,0.239,0.239
		c-0.239,0.29-0.556,0.236-0.873,0.236c-1.217,0-2.409,0-3.624,0c-0.028-0.316-0.107-0.607-0.107-0.926c0-11.691,0-23.386,0-35.103
		c0-0.318,0.054-0.637,0.08-0.926c1.217,0,2.407,0,3.626,0c0.315,0,0.634-0.054,0.871,0.211c-0.078,0.078-0.158,0.159-0.237,0.264
		c-0.08,0.081-0.16,0.159-0.237,0.238c-0.026,0.08-0.082,0.159-0.107,0.239c-0.052,0.263-0.132,0.528-0.132,0.793
		c0,5.343,0,10.687,0,16.004c0,0.107,0.028,0.239,0.054,0.345c-0.026,0.186,0.026,0.237,0.211,0.186c0.634,0,1.269,0,1.905,0
		c0.263,0.077,0.502,0.025,0.715-0.16c0.713-0.105,1.323-0.344,1.797-0.952c0.237-0.316,0.556-0.529,0.847-0.818
		c0.821-0.795,1.269-1.747,1.243-2.911C18.867,113.818,18.999,113.792,19.132,113.765z"/>
	<path id="XMLID_113_" fill="#FFFFFF" d="M-92.503,100.617c0.026,0.345,0.053,0.715,0.053,1.06c0,11.454,0,22.908,0,34.363
		c0,0.343-0.027,0.713-0.053,1.058c-0.053,0.08-0.105,0.186-0.159,0.265l0,0c-0.423-0.027-0.846-0.027-1.296-0.027
		c-0.767,0-1.561,0-2.328,0c-0.264,0-0.555,0-0.714-0.289c0.027-0.081,0-0.186,0.053-0.239c0.609-0.476,0.636-1.111,0.636-1.799
		c0-10.794,0-21.586,0-32.406c0-0.054,0-0.079,0-0.105c0.105-0.688-0.16-1.216-0.688-1.64c-0.08-0.105-0.132-0.186-0.211-0.291
		c0.186-0.054,0.371-0.159,0.529-0.186c1.137-0.025,2.275-0.025,3.413,0C-93.032,100.406-92.768,100.539-92.503,100.617z"/>
	<path id="XMLID_110_" fill="#FFFFFF" d="M-67.636,156.622c0-4.313-0.027-8.626-0.027-12.91c0-0.159,0.027-0.318,0.053-0.529
		c0.265-0.026,0.529-0.106,0.794-0.106c2.01,0,4.021,0,6.058,0c0.238,0.054,0.476,0.106,0.714,0.158
		c0.636,0.186,1.244,0.424,1.826,0.82c2.248,1.48,2.381,5.423-0.371,7.011c-0.238,0.132-0.503,0.265-0.741,0.371
		c-0.291-0.028-0.422,0.105-0.291,0.368c0.053,0.134,0.186,0.213,0.265,0.345c0.847,1.191,1.693,2.408,2.539,3.598
		c0.212,0.291,0.371,0.582,0.556,0.875c-0.873,0.025-1.747,0.052-2.619,0.078c-0.105-0.053-0.265-0.053-0.318-0.159
		c-1.031-1.455-2.037-2.936-3.042-4.417c-0.079-0.08-0.185-0.212-0.264-0.212c-0.821-0.025-1.667-0.025-2.487,0
		c-0.079,0-0.158,0.132-0.238,0.212c-0.026,1.058-0.026,2.115-0.053,3.175c0,0.423-0.026,0.871-0.026,1.295
		C-66.076,156.622-66.869,156.622-67.636,156.622z M-65.123,149.769c1.322,0,2.592,0.028,3.862-0.025
		c0.423-0.028,0.873-0.158,1.243-0.371c0.873-0.476,1.111-1.295,1.005-2.247c-0.105-0.9-0.662-1.431-1.481-1.668
		c-0.899-0.265-3.545-0.291-4.576-0.052C-65.309,146.304-65.309,148.5-65.123,149.769z"/>
	<path id="XMLID_109_" fill="#FFFFFF" d="M95.689,145.457c0,1.032,0,2.064,0,3.095c0.08,0.054,0.158,0.133,0.239,0.186
		c2.116,0.079,4.258-0.026,6.401,0.053c0.105,0.768,0.132,1.429,0,2.09c-1.666,0-3.359,0-5.026,0c-0.423,0-0.874,0-1.297,0.026
		c-0.132,0-0.237,0.159-0.345,0.239c0,1.058,0,2.142,0,3.253c0.318,0.026,0.584,0.105,0.849,0.105c1.879,0,3.729,0,5.606,0
		c0.396,0,0.795-0.053,1.191,0.106c0.132,0.688,0.132,1.349,0.027,2.012c-3.335,0-6.693,0-10.026,0
		c-0.026-0.267-0.08-0.556-0.08-0.822c0-3.913,0-7.83,0-11.745c0-0.265,0.027-0.554,0.054-0.872c0.186-0.053,0.37-0.134,0.556-0.134
		c2.961,0,5.925,0,8.914,0c0.159,0,0.291,0.054,0.502,0.081c0.133,0.687,0.081,1.35,0.054,2.009c-1.773,0-3.57,0.027-5.344,0.027
		c-0.583,0-1.191,0-1.772,0C95.98,145.22,95.796,145.22,95.689,145.457z"/>
	<path id="XMLID_106_" fill="#FFFFFF" d="M59.711,153.58c-0.343,0.739-0.686,1.506-1.03,2.247c-0.133,0.291-0.265,0.556-0.422,0.847
		c-0.795,0-1.589,0-2.382,0c-0.026-0.026-0.078-0.052-0.078-0.08c0.158-0.37,0.343-0.767,0.528-1.137
		c0.476-1.032,0.952-2.09,1.402-3.122c0.715-1.614,1.427-3.254,2.142-4.867c0.396-0.898,0.741-1.825,1.137-2.726
		c0.265-0.582,0.556-1.138,0.847-1.693c0.713,0,1.429-0.025,2.144-0.025c0.263,0.529,0.528,1.06,0.767,1.587
		c1.534,3.467,3.042,6.932,4.551,10.396c0.237,0.529,0.422,1.085,0.634,1.641c-0.793,0.026-1.587,0.026-2.381,0.053
		c-0.317-0.662-0.608-1.297-0.925-1.957c-0.186-0.37-0.345-0.767-0.53-1.138c-0.133-0.079-0.265-0.211-0.37-0.211
		c-1.879-0.027-3.758-0.027-5.635,0C59.978,153.367,59.844,153.498,59.711,153.58z M65.057,151.197
		c-0.398-1.323-1.667-4.206-2.196-5.024c-0.478,0.818-0.793,1.665-1.111,2.512c-0.345,0.819-0.819,1.586-0.952,2.539
		C62.225,151.197,63.602,151.197,65.057,151.197z"/>
	<path id="XMLID_103_" fill="#FFFFFF" d="M29.159,142.997c0.104,0.159,0.263,0.291,0.343,0.476
		c1.851,4.206,3.704,8.414,5.529,12.619c0.08,0.186,0.08,0.371,0.105,0.582c-0.793,0-1.586,0-2.381,0
		c-0.131-0.318-0.291-0.607-0.424-0.927c-0.343-0.74-0.66-1.454-0.979-2.195c-0.132-0.079-0.263-0.185-0.396-0.185
		c-1.879,0-3.729,0-5.608,0c-0.131,0-0.265,0.131-0.396,0.213c-0.424,1.004-0.847,2.008-1.269,3.014c-0.847,0-1.693,0-2.54,0
		c1.984-4.496,3.941-9.021,5.927-13.518C27.729,143.023,28.444,143.023,29.159,142.997z M30.297,151.119
		c-0.186-0.9-0.663-1.693-1.008-2.514c-0.343-0.821-0.608-1.693-1.242-2.515c-0.689,1.642-1.323,3.149-1.958,4.684
		c-0.028,0.105,0,0.237,0.027,0.345C27.095,151.277,29.263,151.277,30.297,151.119z"/>
	<path id="XMLID_100_" fill="#FFFFFF" d="M-38.326,156.622c-0.291-0.715-0.582-1.456-0.925-2.171
		c-0.132-0.317-0.371-0.608-0.529-0.899c-0.133-0.265-0.397-0.211-0.636-0.211c-1.64,0-3.306,0-4.947,0
		c-0.211,0-0.449,0.105-0.661,0.157c-0.476,1.034-0.926,2.064-1.402,3.096c-0.794,0.028-1.588,0.028-2.381,0.054
		c0.106-0.424,0.186-0.848,0.317-1.244c0.212-0.556,0.476-1.084,0.714-1.612c0.688-1.508,1.375-2.99,2.037-4.524
		c0.714-1.613,1.35-3.254,2.064-4.895c0.211-0.502,0.555-0.952,0.82-1.401c0.714,0.026,1.401,0.078,2.116,0.105
		c0.688,1.534,1.376,3.097,2.064,4.656c1.138,2.592,2.275,5.21,3.386,7.804c0.133,0.291,0.238,0.582,0.371,0.873
		c-0.158,0.238-0.371,0.238-0.608,0.238C-37.083,156.647-37.69,156.647-38.326,156.622z M-42.823,146.119
		c-0.794,1.295-1.164,2.514-1.693,3.649c-0.185,0.425-0.449,0.821-0.449,1.323c1.164,0.238,3.492,0.186,4.286-0.08
		C-41.368,149.452-41.977,147.864-42.823,146.119z"/>
	<path id="XMLID_97_" fill="#FFFFFF" d="M-80.811,143.103c1.058,2.381,2.116,4.762,3.148,7.143c0.899,2.063,1.799,4.128,2.699,6.191
		c-0.159,0.211-0.397,0.237-0.609,0.237c-0.608,0-1.217-0.026-1.852-0.026c-0.291-0.715-0.582-1.456-0.899-2.169
		c-0.133-0.317-0.371-0.609-0.529-0.898c-0.159-0.267-0.396-0.213-0.635-0.213c-1.64,0-3.306,0-4.947,0
		c-0.211,0-0.449,0.105-0.661,0.159c-0.476,1.031-0.926,2.062-1.402,3.096c-0.794,0.025-1.587,0.025-2.381,0.052
		c0.027-0.186,0.027-0.396,0.105-0.582c0.45-1.085,0.926-2.169,1.402-3.228c0.291-0.635,0.582-1.297,0.846-1.931
		c0.661-1.562,1.323-3.123,1.984-4.657c0.423-0.979,0.873-1.931,1.323-2.883c0.053-0.132,0.185-0.237,0.291-0.37
		C-82.213,143.023-81.499,143.076-80.811,143.103z M-79.938,151.224c0.027-0.158,0.08-0.264,0.08-0.317
		c-0.609-1.454-1.243-2.91-1.852-4.337c-0.053-0.107-0.105-0.212-0.185-0.425c-0.503,0.636-0.662,1.191-0.899,1.72
		c-0.238,0.556-0.476,1.084-0.688,1.64c-0.211,0.529-0.582,1.033-0.555,1.72C-82.636,151.251-81.287,151.251-79.938,151.224z"/>
	<path id="XMLID_94_" fill="#FFFFFF" d="M9.398,152.6c0,1.323-0.028,2.672-0.028,3.994c-0.793,0-1.56,0.028-2.354,0.028
		c-0.026-0.345-0.052-0.715-0.052-1.06c0-3.729,0-7.459,0-11.163c0-0.398,0.026-0.795,0.026-1.217c1.06-0.237,2.09-0.08,3.094-0.106
		c1.034-0.027,2.064,0,3.098,0c0.237,0.054,0.475,0.106,0.713,0.158c0.898,0.238,1.64,0.688,2.329,1.297
		c1.612,1.349,1.931,4.973-0.556,6.773c-0.185,0.132-0.398,0.263-0.582,0.396c-0.107,0.052-0.213,0.104-0.292,0.157
		c-0.291,0.105-0.607,0.186-0.898,0.291c-0.424,0-0.847-0.025-1.217,0.211h-0.105l-0.106,0.028
		c-0.874-0.028-1.773-0.028-2.646-0.028C9.609,152.335,9.45,152.389,9.398,152.6z M9.476,150.113
		c1.245,0.105,2.435,0.132,3.598-0.105c0.291-0.054,0.608-0.186,0.875-0.345c0.845-0.502,1.11-1.297,1.03-2.222
		c-0.078-0.979-0.582-1.667-1.508-1.932c-1.297-0.344-2.646-0.317-3.968-0.158C9.316,146.276,9.291,148.844,9.476,150.113z"/>
	<path id="XMLID_93_" fill="#FFFFFF" d="M-102.238,143.076c0.159-0.027,0.318-0.053,0.476-0.079
		c0.344,0.052,0.662,0.052,0.953-0.134c0.238,0,0.45,0,0.688,0c0.291,0.213,0.635,0.213,0.979,0.134
		c1.641,0.345,2.354,0.688,3.413,1.693c-0.318,0.476-0.635,0.952-0.979,1.429c-0.211,0.291-0.476,0.316-0.82,0.079
		c-0.423-0.265-0.847-0.556-1.27-0.767c-0.238-0.134-0.529-0.159-0.793-0.239c-0.636-0.316-1.297-0.316-1.932,0
		c-1.058,0.45-1.323,0.82-1.217,1.72c0.054,0.502,0.265,0.898,0.768,1.084c0.555,0.213,1.111,0.37,1.667,0.556
		c0.158,0.054,0.317,0.107,0.476,0.159c0.158,0.026,0.317,0.052,0.476,0.079c0.159,0.054,0.317,0.106,0.476,0.158
		c0.582,0.238,1.164,0.451,1.746,0.741c2.831,1.402,2.222,5.105,0.344,6.27c-0.423,0.265-0.899,0.478-1.375,0.688
		c-0.345-0.025-0.688,0-0.952,0.212l0,0c-0.636,0-1.27,0-1.905,0l-0.106-0.026h-0.105c-0.291-0.239-0.635-0.239-0.979-0.211
		c-0.054-0.028-0.132-0.054-0.212-0.028c-0.186-0.053-0.344-0.131-0.529-0.185c-0.714-0.343-1.401-0.662-2.117-1.032
		c-0.211-0.105-0.396-0.264-0.529-0.423c-0.158-0.185-0.185-0.45-0.026-0.661c0.371-0.45,0.714-0.952,1.296-1.217
		c0.926,0.504,1.719,1.271,2.804,1.402c0.158,0.054,0.318,0.079,0.476,0.132c0.556,0,1.111,0.025,1.667,0.025
		c0.159-0.052,0.344-0.104,0.503-0.157c0.37-0.291,0.74-0.584,1.138-0.898c0.026-0.213,0.053-0.452,0.079-0.689
		c0.027-0.448-0.185-0.767-0.555-0.979c-0.371-0.211-0.741-0.396-1.112-0.582c-0.185-0.053-0.344-0.133-0.529-0.185
		c-0.08-0.026-0.132-0.054-0.211-0.026c-0.212-0.213-0.45-0.239-0.741-0.213c-0.08-0.026-0.133-0.026-0.211-0.026
		c-0.212-0.213-0.45-0.238-0.741-0.213c-0.556-0.236-1.084-0.474-1.64-0.686c-0.821-0.318-1.323-0.9-1.588-1.719
		c-0.423-1.245-0.238-2.409,0.291-3.572c0.238-0.53,0.636-0.9,1.138-1.138c0.291-0.133,0.582-0.237,0.874-0.37
		C-102.556,143.183-102.396,143.13-102.238,143.076z"/>
	<path id="XMLID_82_" fill="#FFFFFF" d="M82.595,145.22l-0.105-0.027h-0.105c-0.582-0.291-1.138-0.291-1.693,0.027l0,0
		c-0.266-0.027-0.528,0-0.739,0.237c-2.224,0.608-3.097,3.545-2.753,5.292c0.106,0.448,0.211,0.925,0.424,1.349
		c0.556,1.243,1.429,2.142,2.829,2.435c0.213,0.184,0.452,0.237,0.715,0.157c0.318,0,0.636,0,0.952,0
		c0.266,0.08,0.504,0.054,0.716-0.157c0.74-0.159,1.349-0.609,1.904-1.086c0.582-0.504,0.688-0.504,1.27,0.08
		c0.316,0.291,0.609,0.607,0.952,0.952c-0.821,1.136-1.931,1.745-3.148,2.195c-0.265-0.026-0.529,0-0.767,0.186h-0.105l-0.105,0.025
		c-0.793,0-1.588,0-2.383,0l-0.104-0.025H80.24c-0.212-0.212-0.475-0.237-0.741-0.186c-0.396-0.133-0.845-0.237-1.216-0.423
		c-1.322-0.637-2.275-1.615-2.883-2.964c-1.006-2.195-1.006-4.391-0.107-6.587c0.609-1.508,1.642-2.671,3.254-3.174
		c0.556-0.185,1.138-0.37,1.693-0.556c0.159-0.025,0.318-0.079,0.504-0.107c0.634,0,1.243,0,1.878,0
		c0.212,0.186,0.449,0.213,0.714,0.134c0.157,0.026,0.316,0.052,0.476,0.079c0.16,0.054,0.319,0.106,0.477,0.158
		c0.979,0.37,1.825,0.979,2.646,1.719c-0.291,0.345-0.528,0.638-0.769,0.927c-0.237,0.265-0.448,0.53-0.686,0.793
		c-0.081,0-0.159,0-0.267,0c-0.634-0.396-1.082-1.082-1.877-1.241C83.125,145.192,82.859,145.166,82.595,145.22z"/>
	<path id="XMLID_79_" fill="#FFFFFF" d="M-24.173,151.197c-0.027,0.396-0.08,0.793-0.08,1.163c-0.026,1.431-0.026,2.831-0.026,4.262
		c-0.794,0-1.588,0.025-2.355,0.025c-0.026-1.06-0.026-2.144-0.053-3.201c0-0.661-0.027-1.349-0.053-2.01
		c-0.053-0.08-0.106-0.159-0.159-0.213c-1.667-2.591-3.334-5.158-4.974-7.751c-0.027-0.053,0.027-0.157,0.027-0.29
		c0.396-0.134,0.82-0.053,1.243-0.08c0.396-0.026,0.793,0,1.216,0c1.323,1.773,2.328,3.756,3.624,5.53
		c0.054,0.184,0.106,0.396,0.345,0.289c0.079-0.025,0.105-0.237,0.185-0.345c1.138-1.771,2.275-3.57,3.492-5.447
		c0.82-0.081,1.719-0.054,2.593,0c0.132,0.396-0.159,0.634-0.318,0.871c-1.481,2.249-2.962,4.499-4.47,6.72
		c-0.053,0.054-0.08,0.132-0.106,0.213C-24.067,151.012-24.12,151.092-24.173,151.197z"/>
	<path id="XMLID_78_" fill="#FFFFFF" d="M43.946,154.479c2.248,0.079,4.523-0.027,6.824,0.079c0.133,0.741,0.053,1.401,0.053,2.064
		c-0.239,0.025-0.476,0.052-0.713,0.052c-2.938,0-5.873,0-8.81,0c-0.028-0.265-0.054-0.556-0.054-0.82c0-3.863,0-7.698,0-11.56
		c0-0.345,0.026-0.689,0.054-1.111c0.739-0.134,1.455-0.08,2.144-0.026c0.317,0.316,0.211,0.688,0.211,1.03c0,2.938,0,5.873,0,8.81
		c0,0.45,0.026,0.873,0.026,1.323C43.707,154.425,43.787,154.504,43.946,154.479z"/>
	<path id="XMLID_77_" fill="#FFFFFF" d="M-88.852,136.383c0-0.104-0.027-0.237-0.027-0.343c0.08-0.847-0.238-1.536-0.714-2.195
		c-0.476-0.662-0.926-1.35-1.217-2.116c-0.555-1.349-0.529-2.699-0.079-4.076c0.238-0.739,0.529-1.48,0.793-2.247
		c0.292-0.82,0.503-1.666,0.53-2.566c0.026-1.138-0.185-2.195-0.741-3.201c-1.402-2.513-1.217-5.132-0.265-7.725
		c0.344-0.952,0.847-1.851,1.35-2.725c0.582-0.979,0.555-1.957,0.211-2.961c-0.133-0.425-0.291-0.822-0.45-1.245
		c-0.397-1.163-0.476-2.327,0.106-3.465c0.053-0.107,0.053-0.237,0.08-0.345c0.238,0.186,0.185,0.423,0.105,0.662
		c-0.291,0.979-0.053,1.878,0.318,2.777c0.131,0.292,0.264,0.581,0.422,0.847c0.926,1.587,1.006,3.201,0.159,4.867
		c-0.317,0.635-0.582,1.297-0.847,1.958c-0.926,2.381-0.926,4.708,0.344,6.983c0.714,1.297,0.899,2.671,0.714,4.127
		c-0.132,0.873-0.344,1.693-0.688,2.513c-0.318,0.741-0.635,1.456-0.926,2.197c-0.582,1.4-0.502,2.775,0.159,4.126
		c0.186,0.343,0.37,0.714,0.555,1.058c0.503,0.979,0.714,2.011,0.317,3.095C-88.747,136.356-88.799,136.356-88.852,136.383z"/>
	<path id="XMLID_74_" fill="#FFFFFF" d="M75.558,136.464c0.239-1.138-0.238-2.038-0.898-2.938c-1.006-1.349-1.613-2.883-1.375-4.602
		c0.078-0.556,0.212-1.086,0.369-1.614c0.239-0.741,0.556-1.48,0.795-2.222c0.448-1.376,0.634-2.778,0.186-4.18
		c-0.054-0.107-0.082-0.185-0.134-0.292c-0.026-0.104,0-0.264-0.078-0.343c-0.529-0.662-0.715-1.455-1.033-2.222
		c-0.026-0.107-0.078-0.186-0.104-0.293c-0.027-0.237-0.027-0.475-0.081-0.713c-0.289-1.35-0.104-2.698,0.267-3.995
		c0.315-1.084,0.714-2.169,1.375-3.121c0.237-0.345,0.396-0.768,0.556-1.164c0.317-0.688,0.317-1.375,0.132-2.09
		c-0.105-0.37-0.239-0.767-0.396-1.111c-0.556-1.296-0.688-2.592-0.213-3.941c0.318,0.105,0.238,0.371,0.213,0.582
		c-0.132,1.032,0.157,1.958,0.635,2.857c0.212,0.396,0.396,0.767,0.582,1.165c0.475,1.056,0.528,2.142,0.104,3.228
		c-0.212,0.554-0.449,1.109-0.687,1.638c-0.266,0.636-0.556,1.245-0.74,1.879c-0.636,2.09-0.557,4.153,0.527,6.11
		c0.239,0.424,0.425,0.849,0.557,1.322c0.502,1.747,0.316,3.467-0.317,5.133c-0.265,0.715-0.582,1.402-0.9,2.063
		c-0.793,1.72-0.741,3.387,0.211,5.026c0.636,1.11,0.953,2.248,0.795,3.519c-0.027,0.133-0.027,0.265-0.054,0.396
		C75.771,136.516,75.664,136.49,75.558,136.464z"/>
	<path id="XMLID_73_" fill="#FFFFFF" d="M5.085,101.332c0,0.078,0,0.159,0.052,0.237c0.556,1.138,0.452,2.275,0.081,3.413
		c-0.133,0.37-0.239,0.741-0.344,1.111c-0.026,0.08-0.08,0.186-0.105,0.264c-0.398,1.033-0.239,2.012,0.265,2.99
		c0.422,0.793,0.845,1.613,1.216,2.435c0.9,1.982,1.111,4.046,0.556,6.162c-0.132,0.529-0.371,1.06-0.634,1.534
		c-0.979,1.774-1.034,3.626-0.45,5.53c0.211,0.636,0.45,1.27,0.661,1.904c0.16,0.45,0.291,0.898,0.423,1.349
		c0.422,1.64,0.08,3.122-0.819,4.523c-0.396,0.637-0.926,1.19-1.111,1.932c-0.052,0.08-0.08,0.186-0.133,0.265
		c-0.052,0.608-0.078,1.244-0.132,1.852c-0.635-1.191-0.476-2.354,0.106-3.519c0.237-0.502,0.503-0.979,0.741-1.482
		c0.477-1.109,0.53-2.221,0.133-3.357c-0.159-0.478-0.371-0.952-0.582-1.43c-0.239-0.556-0.504-1.084-0.689-1.64
		c-0.53-1.429-0.767-2.911-0.423-4.444c0.159-0.714,0.423-1.35,0.767-1.983c0.741-1.403,1.004-2.91,0.767-4.498
		c-0.133-0.873-0.344-1.693-0.689-2.513c-0.317-0.74-0.634-1.456-0.925-2.197c-0.556-1.322-0.476-2.617,0.158-3.913
		c0.185-0.344,0.371-0.688,0.556-1.06c0.45-0.952,0.767-1.931,0.45-2.988C4.848,101.649,4.821,101.438,5.085,101.332z"/>
	<path id="XMLID_72_" fill="#FFFFFF" d="M2.969,112.972c-0.08-0.291-0.159-0.608-0.265-0.898c-0.132-0.371-0.265-0.741-0.396-1.112
		c-0.979-2.46-0.556-4.682,1.032-6.745c0.476-0.608,0.845-1.216,0.793-2.037c0-0.185,0.026-0.397,0.026-0.583
		c0.054,0,0.107,0.027,0.16,0c0.396,1.138,0.159,2.171-0.396,3.201c-0.237,0.425-0.423,0.847-0.636,1.271
		c-0.502,1.138-0.528,2.301-0.131,3.465c0.159,0.476,0.37,0.952,0.582,1.428c0.237,0.556,0.476,1.084,0.688,1.64
		c0.502,1.35,0.713,2.753,0.424,4.206c-0.133,0.715-0.371,1.377-0.715,2.012c-0.873,1.586-1.164,3.279-0.767,5.053
		c0.159,0.739,0.396,1.454,0.662,2.144c0.239,0.66,0.556,1.323,0.847,1.957c0.661,1.428,0.582,2.856-0.159,4.231
		c-0.634,1.165-1.164,2.356-1.03,3.705c0,0.052-0.16,0.132-0.239,0.186c-0.398-1.271-0.185-2.515,0.291-3.705
		c0.105-0.264,0.211-0.528,0.291-0.794c0.291-0.978,0.291-1.93-0.265-2.856c-0.502-0.847-0.926-1.72-1.297-2.62
		c-1.004-2.538-1.215-5.104,0.107-7.592c0.926-1.72,1.084-3.439,0.53-5.29C3.047,113.156,2.995,113.051,2.969,112.972z"/>
	<path id="XMLID_71_" fill="#FFFFFF" d="M75.982,102.048c0.105,0.396,0.185,0.793,0.289,1.189c0.027,0.078,0.081,0.159,0.107,0.237
		c0.263,0.478,0.502,0.979,0.819,1.43c1.271,1.745,1.481,3.624,0.794,5.633c-0.238,0.741-0.556,1.482-0.794,2.249
		c-0.371,1.06-0.503,2.17-0.397,3.281c0.054,0.713,0.239,1.429,0.582,2.036c1.111,1.904,1.377,3.942,0.927,6.084
		c-0.026,0.16-0.026,0.319-0.052,0.477c-0.026,0.105-0.08,0.186-0.107,0.291c-0.449,1.006-0.925,2.012-1.375,2.99
		c-0.105,0.211-0.237,0.396-0.345,0.607c-0.582,1.112-0.66,2.249-0.159,3.413c0.056,0.105,0.081,0.211,0.133,0.345
		c0.608,1.4,0.741,2.803,0.186,4.258c-0.263-0.158-0.211-0.423-0.159-0.634c0.159-1.112-0.104-2.116-0.634-3.096
		c-0.107-0.212-0.211-0.423-0.345-0.636c-0.715-1.349-0.767-2.724-0.159-4.126c0.318-0.739,0.636-1.455,0.952-2.196
		c0.98-2.46,1.034-4.867-0.289-7.222c-0.529-0.952-0.741-1.984-0.741-3.094c0-1.271,0.317-2.435,0.793-3.572
		c0.319-0.767,0.662-1.534,0.979-2.301c0.504-1.245,0.423-2.486-0.105-3.704c-0.157-0.37-0.369-0.713-0.528-1.058
		c-0.159-0.371-0.318-0.715-0.478-1.086c-0.237-0.582-0.211-1.163-0.104-1.771C75.743,102.048,75.902,102.048,75.982,102.048z"/>
	<path id="XMLID_63_" fill="#FFFFFF" d="M-86.393,125.166c-0.344,0.715-0.662,1.431-1.005,2.144
		c-0.185,0.396-0.37,0.795-0.582,1.165c-0.688,1.19-0.688,2.405-0.159,3.65c0.053,0.105,0.106,0.211,0.132,0.316
		c0.583,1.377,0.688,2.752,0.053,4.152c-0.264-0.104-0.211-0.315-0.158-0.5c0.317-1.06,0-2.038-0.449-2.99
		c-0.212-0.477-0.477-0.927-0.688-1.375c-0.396-0.849-0.502-1.773-0.291-2.672c0.133-0.529,0.344-1.06,0.556-1.562
		c0.291-0.688,0.609-1.377,0.873-2.09c0.529-1.429,0.714-2.911,0.423-4.444c-0.159-0.794-0.45-1.509-0.82-2.222
		c-0.741-1.377-0.953-2.831-0.714-4.392c0.158-1.031,0.529-1.984,0.925-2.937c0.318-0.767,0.636-1.534,0.899-2.327
		c0.265-0.767,0.265-1.562-0.026-2.328c-0.212-0.609-0.476-1.166-0.741-1.747c-0.344-0.714-0.714-1.427-0.688-2.248
		c0.131-0.079,0.264-0.159,0.396-0.238c0.132,0.767,0.529,1.402,0.925,2.012c0.371,0.556,0.741,1.109,1.005,1.719
		c0.45,1.005,0.583,2.036,0.317,3.12c-0.053,0.239-0.079,0.479-0.105,0.716c-0.027,0.105-0.08,0.185-0.105,0.291
		c-0.318,0.847-0.636,1.693-0.926,2.565c-0.609,1.931-0.555,3.81,0.45,5.608c0.978,1.747,1.058,3.598,0.714,5.528
		c-0.053,0.266-0.105,0.556-0.132,0.821C-86.313,125.009-86.366,125.088-86.393,125.166z"/>
	<path id="XMLID_58_" fill="#FFFFFF" d="M-11.819,156.594c0-4.444,0-8.861,0-13.359c0.767-0.289,1.507-0.158,2.301-0.132
		c0.053,0.213,0.105,0.398,0.105,0.582c0,4.207,0,8.413,0,12.619c0,0.105-0.026,0.237-0.053,0.344
		C-10.258,156.647-11.052,156.622-11.819,156.594z"/>
	<path id="XMLID_46_" fill="#FFFFFF" d="M-16.342,100.539c0.053-0.106,0.079-0.265,0.158-0.292c0.186-0.052,0.371-0.052,0.582-0.052
		c3.36,0,6.693,0,10.053,0c0.159,0,0.344-0.026,0.45,0.052c0.105,0.054,0.105,0.238,0.158,0.37
		c-0.582,0.026-1.164-0.078-1.719,0.239c-0.132,0.025-0.291,0.054-0.423,0.054c-0.264-0.054-0.529-0.028-0.74,0.185H-7.93
		l-0.106,0.053c-0.186,0.052-0.37,0.105-0.529,0.185c-1.561,0.396-2.883,1.19-4.127,2.168c-0.529,0.425-1.005,0.875-1.481,1.323
		c0-0.186-0.026-0.396-0.026-0.582c0.423-1.109,0.423-1.109,0.132-2.247c-0.423-0.371-0.846-0.741-1.27-1.138
		C-15.628,100.512-16.025,100.617-16.342,100.539z"/>
	<path id="XMLID_45_" fill="#FFFFFF" d="M12.703,100.592c-0.237-0.264-0.556-0.212-0.873-0.212c-1.217,0-2.407,0-3.624,0
		c0.132-0.291,0.396-0.185,0.635-0.185c1.72,0,3.413,0,5.132,0c2.672,0,5.317,0,7.989,0c0.371,0,0.793-0.134,1.112,0.237
		c0.104,0.899,0.13,5,0.026,6.295c-0.185,0.081-0.318,0-0.344-0.185c-0.052-1.005-0.345-1.931-0.926-2.776
		c-0.132-0.185-0.186-0.396-0.371-0.556c-0.502-0.45-0.953-0.952-1.427-1.43c-0.082-0.078-0.16-0.186-0.267-0.212
		c-0.634-0.131-1.057-0.767-1.771-0.74c-0.371-0.29-0.819-0.237-1.243-0.237C15.401,100.565,14.052,100.592,12.703,100.592z"/>
	<path id="XMLID_44_" fill="#FFFFFF" d="M63.257,101.095c-1.349,0.634-2.275,1.612-2.646,3.068
		c-0.026,0.078-0.052,0.186-0.105,0.264c-0.054,0.239-0.105,0.478-0.158,0.715c-0.133-0.079-0.267-0.159-0.424-0.237
		c-0.053-0.159-0.08-0.318-0.131-0.478c-0.028-0.104-0.082-0.186-0.107-0.289c-0.052-0.479-0.237-0.875-0.608-1.219
		c-0.185-0.186-0.291-0.423-0.45-0.66c-0.053-0.054-0.131-0.133-0.184-0.186l-0.055-0.054c-0.052-0.054-0.13-0.131-0.185-0.185
		c-0.423-0.266-0.845-0.503-1.242-0.768c-0.054-0.211-0.211-0.238-0.424-0.211c-0.053-0.054-0.131-0.054-0.211-0.054
		c-0.424-0.345-0.953-0.211-1.429-0.264c0.08-0.133,0.133-0.292,0.237-0.344c0.133-0.053,0.318-0.026,0.478-0.026
		c3.068,0,6.11,0,9.179,0c0.159,0,0.318,0.026,0.476,0.026c0.028,0.133,0.054,0.237,0.08,0.344
		c-0.477,0.053-1.005-0.054-1.429,0.264c-0.079-0.026-0.159,0-0.213,0.054C63.574,100.962,63.417,101.014,63.257,101.095z"/>
	<path id="XMLID_42_" fill="#FFFFFF" d="M59.95,104.904c0.131,0.078,0.265,0.158,0.424,0.237c0.026,0.186,0.052,0.396,0.052,0.582
		c0,4.762,0.026,9.523-0.026,14.284c-0.026,2.698-0.265,5.397-0.927,8.016c-0.448,1.826-1.137,3.52-2.275,5.054
		c-1.216,1.666-2.751,2.909-4.709,3.65c-0.158,0.052-0.29,0.133-0.423,0.185c-0.159,0.053-0.344,0.106-0.502,0.16
		c-0.158,0.025-0.291,0.052-0.45,0.077c-0.159,0-0.317,0-0.502-0.025c-0.028-0.186,0.054-0.291,0.239-0.345
		c0.449-0.132,0.898-0.289,1.349-0.448c0.371-0.134,0.767-0.237,1.112-0.423c0.343-0.186,0.608-0.452,0.925-0.636
		c1.006-0.609,1.773-1.454,2.514-2.303c0.793-0.925,1.27-2.062,1.693-3.199c0.634-1.773,0.979-3.599,1.216-5.449
		c0.237-1.931,0.291-3.891,0.265-5.821c0-4.284,0-8.57,0-12.882C59.924,105.379,59.95,105.142,59.95,104.904z"/>
	<path id="XMLID_37_" fill="#FFFFFF" d="M-88.138,100.539c0-0.106,0.026-0.238,0.026-0.344c3.201,0,6.402,0,9.655,0
		c0.08,0.237,0.186,0.448,0.186,0.661c0.027,1.825,0,3.649,0,5.449c0,0.133-0.053,0.29-0.053,0.422
		c-0.344,0.028-0.291-0.185-0.291-0.289c-0.027-1.06-0.503-1.958-0.979-2.856c-0.026-0.082-0.053-0.16-0.132-0.212
		c-0.821-0.583-1.35-1.481-2.275-1.985c-0.45-0.237-0.874-0.503-1.403-0.556c-0.449-0.317-0.978-0.237-1.481-0.237
		C-85.942,100.565-87.054,100.539-88.138,100.539z"/>
	<path id="XMLID_36_" fill="#FFFFFF" d="M-92.503,100.617c-0.265-0.078-0.529-0.211-0.767-0.211c-1.138-0.026-2.275-0.026-3.413,0
		c-0.186,0-0.371,0.105-0.529,0.186c-0.793,0-1.587,0-2.38,0.025c-0.423,0.026-0.874-0.052-1.244,0.239
		c-2.434,0.45-4.417,2.644-4.735,5.212c-0.027,0.237-0.027,0.475-0.027,0.713c-0.132-0.025-0.264-0.054-0.396-0.079
		c0.027-1.746,0.027-3.491,0.053-5.211c0-0.396-0.08-0.794,0.132-1.217c0.159-0.027,0.344-0.079,0.529-0.079
		c4.047,0,8.068,0,12.116,0c0.159,0,0.344-0.026,0.45,0.052C-92.583,100.301-92.556,100.485-92.503,100.617z"/>
	<path id="XMLID_31_" fill="#FFFFFF" d="M-14.227,104.189c0,0.186,0.027,0.396,0.027,0.582c-0.027,0.079-0.053,0.159-0.106,0.211
		c-1.243,1.375-2.486,2.726-3.729,4.102c-0.847,0.925-1.719,1.823-2.566,2.75c-0.186,0-0.344,0-0.529,0c0-0.026-0.027-0.105,0-0.105
		c1.058-1.164,2.09-2.329,3.175-3.492c0.291-0.317,0.582-0.608,0.82-0.979c0.344-0.477,0.794-0.9,1.19-1.323
		c0.344-0.37,0.767-0.659,1.005-1.138C-14.782,104.586-14.464,104.4-14.227,104.189z"/>
	<path id="XMLID_17_" fill="#FFFFFF" d="M-97.026,137.046c0.158,0.263,0.449,0.289,0.714,0.289c0.767,0,1.56,0,2.328,0
		c0.423,0,0.846,0.027,1.296,0.027c0,0.054-0.027,0.132-0.08,0.184c-1.401,0-2.83-0.025-4.232-0.025
		c-0.211,0-0.423-0.078-0.662-0.264C-97.424,137.178-97.239,137.124-97.026,137.046z"/>
	<path id="XMLID_16_" fill="#FFFFFF" d="M8.232,137.335c1.217,0,2.407,0,3.626,0c0.315,0,0.634,0.054,0.871-0.237
		c0.081,0,0.159-0.025,0.239-0.052c0.054,0.052,0.131,0.078,0.185,0.132c0.028,0.054,0,0.131,0,0.211
		c-0.054,0.027-0.105,0.105-0.185,0.105c-1.402,0-2.803,0.026-4.206,0.026C8.549,137.521,8.338,137.546,8.232,137.335z"/>
	<path id="XMLID_12_" fill="#FFFFFF" d="M-88.826,102.787c-0.08-0.688,0.159-1.296,0.371-1.905c0,0.557,0,1.112,0,1.666
		C-88.561,102.629-88.694,102.707-88.826,102.787z"/>
	<path id="XMLID_8_" fill="#FFFFFF" d="M4.397,101.307c-0.028,0.078-0.054,0.185-0.08,0.263c-0.052,0-0.106,0-0.16,0
		c0-0.289,0-0.581,0-0.872c0.026,0,0.08,0,0.107,0C4.318,100.91,4.344,101.095,4.397,101.307z"/>
	<path id="XMLID_7_" fill="#FFFFFF" d="M-88.694,136.356c0.026,0.08,0.053,0.186,0.08,0.266c-0.08,0.157,0.026,0.37-0.238,0.502
		c0-0.264,0-0.53,0-0.768C-88.799,136.356-88.747,136.356-88.694,136.356z"/>
	<path id="XMLID_2_" fill="#FFFFFF" d="M-92.45,137.362l-0.105,0.026l-0.106-0.026c0.054-0.079,0.106-0.185,0.159-0.265
		C-92.503,137.178-92.477,137.283-92.45,137.362z"/>
</svg>
